<?xml version="1.0" standalone="no"?>
<!DOCTYPE svg PUBLIC "-//W3C//DTD SVG 20010904//EN"
 "http://www.w3.org/TR/2001/REC-SVG-20010904/DTD/svg10.dtd">
<svg version="1.0" xmlns="http://www.w3.org/2000/svg"
 width="1211.000000pt" height="1211.000000pt" viewBox="0 0 1211.000000 1211.000000"
 preserveAspectRatio="xMidYMid meet">
<metadata>
Created by potrace 1.11, written by Peter Selinger 2001-2013
</metadata>
<g transform="translate(0.000000,1211.000000) scale(0.100000,-0.100000)"
fill="#000000" stroke="none">
<path d="M860 12055 c-207 -42 -393 -145 -540 -301 -114 -121 -197 -270 -242
-434 l-23 -85 0 -5165 0 -5165 23 -85 c96 -352 369 -625 722 -722 l85 -23
5165 0 5165 0 85 23 c353 97 625 369 722 722 l23 85 0 5165 0 5165 -23 85
c-96 350 -363 619 -717 722 l-80 23 -5150 2 c-4204 1 -5162 -1 -5215 -12z
m4855 -2485 l0 -1165 -537 -3 c-404 -2 -538 1 -538 9 0 15 729 2288 742 2312
8 16 24 17 171 15 l162 -3 0 -1165z m1003 1153 c13 -25 742 -2297 742 -2312 0
-8 -134 -11 -537 -9 l-538 3 -3 1155 c-1 635 0 1161 3 1168 3 9 46 12 164 12
143 0 161 -2 169 -17z m4332 -2988 l0 -335 -335 0 -335 0 0 -330 0 -330 -500
0 -500 0 0 330 0 330 -3330 0 -3330 0 0 -330 0 -330 -500 0 -500 0 0 330 0
330 -335 0 -335 0 0 335 0 335 5000 0 5000 0 0 -335z m-5335 -3665 l0 -2665
-1662 -3 c-1262 -1 -1663 1 -1663 10 0 8 1680 5247 1705 5316 3 10 171 12 812
10 l808 -3 0 -2665z m3141 10 c470 -1460 854 -2661 854 -2668 0 -10 -336 -12
-1662 -10 l-1663 3 -3 2655 c-1 1460 0 2661 3 2668 3 10 171 12 811 10 l807
-3 853 -2655z"/>
</g>
</svg>
